<svg xmlns="http://www.w3.org/2000/svg" version="1.1" xmlns:xlink="http://www.w3.org/1999/xlink" xmlns:svgjs="http://svgjs.dev/svgjs" width="1000" height="1000"><g clip-path="url(#SvgjsClipPath1092)"><rect width="1000" height="1000" fill="#083c75"></rect><g transform="matrix(7.070707070707071,0,0,7.070707070707071,150,195.95959595959596)"><svg xmlns="http://www.w3.org/2000/svg" version="1.1" xmlns:xlink="http://www.w3.org/1999/xlink" xmlns:svgjs="http://svgjs.dev/svgjs" width="99" height="86"><svg width="99" height="86" viewBox="0 0 99 86" fill="none" xmlns="http://www.w3.org/2000/svg">
<path d="M96.2286 37.2216C92.4109 36.5822 88.6665 35.5592 84.8891 35.4464C81.5838 35.3486 78.1908 36.0256 74.9331 36.7891C67.7261 38.4815 61.7855 42.5058 56.9356 48.1661C52.6202 53.2059 49.7578 59.0392 48.7513 65.7112C48.2461 69.0623 48.2644 72.5111 47.5653 75.8095C46.3757 81.4097 40.8487 86.2538 34.8606 85.9379V71.2362C29.0298 69.3632 23.7297 66.5763 19.0079 62.74C10.6625 55.9627 4.87932 47.3726 1.84496 36.8342C0.336935 31.5989 -0.0766749 26.2921 0.0111715 20.8725C0.12464 13.9899 0.0404536 7.09971 0.0404536 0.235872C3.96792 -0.531373 9.41805 3.51547 10.6186 8.15655C12.1852 14.2155 9.46564 20.4061 1.90719 22.9035H98.0294C98.5126 27.9733 97.4694 32.7498 96.2286 37.2254V37.2216ZM61.9172 34.4197C61.877 36.4055 62.7737 37.5262 64.0475 37.5639C65.1968 37.5939 66.606 36.2738 66.639 35.138C66.6756 33.7991 65.647 32.7535 64.2488 32.6896C62.7554 32.6219 62.0783 33.4644 61.9136 34.4197H61.9172Z" fill="white"></path>
<path d="M86.8154 37.5889C84.7693 51.0646 63.4373 68.4404 50.7801 67.1842C50.3445 64.3108 50.7178 63.5699 53.2654 62.8102C60.542 60.6288 66.823 56.6722 72.178 51.2564C75.7394 47.6571 78.6237 43.4485 80.8125 38.8187C81.2847 37.822 81.7422 37.5437 82.6866 37.5776C84.0189 37.6265 85.3586 37.5889 86.8117 37.5889H86.8154Z" fill="white"></path>
<path d="M79.0812 38.0928C72.9795 49.8121 64.1327 57.5147 51.8928 61.2569C56.3327 46.9462 69.6743 38.7134 79.0812 38.0928Z" fill="white"></path>
<path d="M49.9858 71.3439C50.0553 69.674 50.9191 69.4145 52.2991 69.0986C56.3071 68.1884 60.3626 67.2482 64.1656 65.7062C70.6077 63.096 75.8968 58.643 80.4429 53.3287C83.9896 49.1841 86.625 44.4038 88.5101 39.255C89.0555 37.7694 89.879 37.871 90.86 38.0176C91.7897 38.1568 92.6828 38.548 93.5905 38.83C88.0416 57.2213 69.0887 71.6937 49.9858 71.3439Z" fill="white"></path>
</svg></svg></g></g><defs><clipPath id="SvgjsClipPath1092"><rect width="1000" height="1000" x="0" y="0" rx="350" ry="350"></rect></clipPath></defs></svg>